<svg xmlns="http://www.w3.org/2000/svg" height="266.667" width="266.667"><path d="M133.018 39.158a64.792 64.792 0 0 0-64.791 64.791 64.792 64.792 0 0 0 38.386 59.078l27.668 63.828 27.817-65.09a64.792 64.792 0 0 0 35.71-57.816 64.792 64.792 0 0 0-64.79-64.79zm0 29.7a35.092 35.092 0 0 1 35.091 35.091 35.092 35.092 0 0 1-35.091 35.092 35.092 35.092 0 0 1-35.092-35.092 35.092 35.092 0 0 1 35.092-35.092zM52.23 98.809a42.675 42.675 0 0 0-34.873 41.925 42.675 42.675 0 0 0 25.284 38.912l18.222 42.04 18.323-42.872a42.675 42.675 0 0 0 10.876-7.855 80.274 78.316 0 0 1-15.507-12.256 23.113 23.113 0 0 1-14.524 5.145 23.113 23.113 0 0 1-23.113-23.114 23.113 23.113 0 0 1 16.484-22.12 80.274 78.316 0 0 1-1.394-14.094 80.274 78.316 0 0 1 .222-5.711zM213.596 99.64a80.274 78.316 0 0 1 .222 5.712 80.274 78.316 0 0 1-1.394 14.093 23.113 23.113 0 0 1 16.484 22.121 23.113 23.113 0 0 1-23.113 23.114 23.113 23.113 0 0 1-14.524-5.145 80.274 78.316 0 0 1-15.507 12.256 42.675 42.675 0 0 0 10.877 7.855l18.322 42.872 18.223-42.04a42.675 42.675 0 0 0 25.283-38.912 42.675 42.675 0 0 0-34.873-41.925z"/></svg>